<svg xmlns="http://www.w3.org/2000/svg" width="100" height="100" fill="none" viewBox="0 0 100 100"><path stroke="#675AFF" stroke-width="3" d="M46.9689 8.25C48.3161 5.91667 51.6839 5.91667 53.0311 8.25L87.6721 68.25C89.0193 70.5833 87.3353 73.5 84.641 73.5H15.359C12.6647 73.5 10.9807 70.5833 12.3279 68.25L46.9689 8.25Z"/><path fill="#675AFF" d="M53.34 23.8V40.96C53.34 42.76 53.26 44.53 53.1 46.27C52.94 47.99 52.73 49.85 52.47 51.85H48.12C47.84 49.85 47.62 47.99 47.46 46.27C47.32 44.53 47.25 42.76 47.25 40.96V23.8H53.34ZM46.02 63.28C46.02 62.7 46.12 62.16 46.32 61.66C46.54 61.14 46.84 60.69 47.22 60.31C47.6 59.93 48.04 59.63 48.54 59.41C49.04 59.19 49.59 59.08 50.19 59.08C50.77 59.08 51.31 59.19 51.81 59.41C52.33 59.63 52.77 59.93 53.13 60.31C53.51 60.69 53.81 61.14 54.03 61.66C54.25 62.16 54.36 62.7 54.36 63.28C54.36 63.88 54.25 64.43 54.03 64.93C53.81 65.43 53.51 65.87 53.13 66.25C52.77 66.63 52.33 66.92 51.81 67.12C51.31 67.34 50.77 67.45 50.19 67.45C49.59 67.45 49.04 67.34 48.54 67.12C48.04 66.92 47.6 66.63 47.22 66.25C46.84 65.87 46.54 65.43 46.32 64.93C46.12 64.43 46.02 63.88 46.02 63.28Z"/></svg>